<?xml version="1.0" encoding="iso-8859-1"?>
<!-- Generator: Adobe Illustrator 16.0.0, SVG Export Plug-In . SVG Version: 6.00 Build 0)  -->
<!DOCTYPE svg PUBLIC "-//W3C//DTD SVG 1.1//EN" "http://www.w3.org/Graphics/SVG/1.1/DTD/svg11.dtd">
<svg version="1.1" id="Capa_1" xmlns="http://www.w3.org/2000/svg" xmlns:xlink="http://www.w3.org/1999/xlink" x="0px" y="0px"
	 width="491.279px" height="491.279px" viewBox="0 0 491.279 491.279" style="enable-background:new 0 0 491.279 491.279;"
	 xml:space="preserve">
<g style="fill:#307878;">
	<g id="Capa_1_4_">
		<g>
			<path d="M57.291,324.551c11.077,5.098,22.334,9.925,30.914,19.19c0.854,0.919,1.695,1.824,2.55,2.743
				c0.013,0.014,0.026,0.039,0.051,0.052c13.29,11.865,24.406,25.919,36.75,39.015c12.63,13.381,28.572,16.874,45.627,12.967
				c14.493-3.312,28.469-8.916,42.677-13.496c-0.038-0.467-0.078-0.919-0.116-1.385c-10.469-4.282-21.222-8.01-31.341-13.018
				c-26.111-12.923-50.247-29.178-71.245-49.439c-9.438-9.107-18.21-18.904-26.213-29.296c-8.098-10.514-14.697-21.882-22.108-32.85
				c-2.019-2.989-4.141-6.626-8.812-5.073c-13.522,4.465-26.941,9.176-38.742,17.431c-6.522,4.555-13.018,8.967-16.732,16.447
				c-0.013,0.013-0.013,0.026-0.013,0.039c-0.725,2.42-0.764,4.982,0.18,7.312c0.829,2.005,2.291,3.662,3.96,5.072
				c0.013,0.014,0.026,0.014,0.038,0.026c0.931,0.673,1.902,1.269,2.898,1.772c5.771,2.925,11.568,5.836,17.392,8.657
				c0.026,0.013,0.038,0.013,0.051,0.026c0.44,0.168,0.88,0.349,1.32,0.518c10.326,4.037,20.626,8.242,30.565,13.134
				C57.059,324.446,57.174,324.498,57.291,324.551z"/>
			<path d="M73.802,177.95c0.738,0.362,1.566,0.686,2.381,0.764c7.092,0.711,14.222,1.139,21.287,2.083
				c6.393,0.867,12.734,2.161,19.049,3.494c4.413,0.944,8.734,2.29,13.678,3.61c-0.194-1.773-0.142-2.601-0.389-3.312
				c-6.575-19.041-14.525-37.75-18.873-57.484c-1.151-5.226-2.008-10.897,0.224-15.761c2.835-6.182,10.094-9.349,16.897-9.343
				c6.594,0.006,12.307,4.551,18.733,4.373c6.474-0.179,12.41-5.369,15.598-10.638c4.286-7.084,5.815-15.485,9.376-22.961
				c4.59-9.636,12.821-17.32,22.458-21.796c12.254-5.693,20.021-3.055,32.519-2.06c4.898,0.391,10.057-0.448,14.06-3.298
				c17.043-12.13-4.856-20.944-14.508-24.592c-16.226-6.132-34.7-5.512-51.019-0.061c-21.86,7.302-40.313,22.404-56.049,39.242
				s-29.243,35.636-44.667,52.76c-5.771,6.407-11.888,12.689-15.838,20.354C50.442,149.379,57.64,169.89,73.802,177.95z"/>
			<path d="M214.683,64.865c-11.621,0.091-22.348,4.076-29.051,13.432c-7.622,10.65-10.404,13.678,0.362,23.447
				c3.818,3.442,8.178,6.289,12.28,9.407c-0.104,0.271-0.22,0.544-0.335,0.815c-8.075-1.799-16.149-3.598-24.6-5.461
				c-1.877,2.277-4.18,5.098-6.936,8.45c16.279,4.218,30.811,10.662,48.125,13.263c-1.863-4.542-2.938-7.621-4.349-10.546
				c-4.193-8.748-5.538-17.47,1.191-25.466c3.028-3.598,6.677-7.026,10.727-9.304c8.321-4.671,17.107-8.527,26.294-13.005
				c-1.721-0.867-3.236-1.76-4.827-2.419C234.223,63.635,224.375,64.8,214.683,64.865z"/>
			<path d="M303.802,76.071c-0.026-0.013-0.038-0.026-0.064-0.026c-4.78-0.003-9.525,0.853-14.396,0.917
				c-5.729,0.075-11.457-0.346-17.185-0.072c-15.976,0.765-35.159,6.707-47.631,17.075c-3.398,2.826-6.213,6.567-7.1,10.896
				c-1.154,5.633,1.188,11.64,5.272,15.688c8.587,8.513,22.608,8.67,33.772,6.882c3.384-0.542,6.965-1.538,9.126-4.198
				c2.441-3.004,2.313-7.67,0.021-10.79c-2.291-3.12-6.411-4.644-10.255-4.191c-6.284,0.741-9.398,5.517-12.684,10.256
				c-0.89-2.107-0.594-4.583,0.383-6.652c0.977-2.069,2.57-3.786,4.278-5.307c4.509-4.019,10.001-6.926,15.86-8.394
				c4.043-1.014,8.564-1.283,12.158,0.831c2.695,1.585,4.587,4.464,4.971,7.567c0.48,3.879-1.943,7.99-3.598,11.299
				c-0.014,0.026-0.014,0.039-0.014,0.052c-0.051,1.824,1.307,2.148,3.028,1.85c0.013,0,0.038-0.013,0.077-0.026
				c0.014,0.013,0.026-0.013,0.04-0.013c6.979-2.65,13.65-6.037,20.438-9.125c4.508-2.05,15.734-4.473,11.062-11.772
				c-0.883-1.381-2.107-2.504-3.156-3.763c-2.165-2.598-3.53-5.826-3.994-9.169c-0.154-1.108,0.212-3.089,0.411-5.005
				C304.844,78.794,304.867,76.781,303.802,76.071z"/>
			<path d="M174.193,203.002c-0.88,4.283-1.384,8.061,3.48,11.335c7.997,5.396,15.399,11.724,22.762,18.014
				c5.034,4.296,5.953,3.998,10.431-0.867c7.027-7.621,14.467-14.933,22.245-21.792c9.382-8.256,19.63-15.542,28.87-23.94
				c7.44-6.741,14.053-14.428,20.847-21.856c10.986-12.046,20.16-25.349,26.773-40.294c1.481-3.35,1.396-7.136,1.725-10.723
				c-0.267,2.92-15.768,9.385-18.445,10.681c-6.771,3.276-13.794,6.025-20.979,8.248c-14.396,4.453-29.442,6.781-44.506,6.984
				c-31.483,0.424-56.627-9.458-83.583-23.915c-5.811-3.119-14.842-0.453-17.055,5.15c-2.239,5.693-2.938,11.697-0.984,17.65
				c2.601,7.919,5.422,15.749,8.127,23.616c3.507,10.249,6.961,20.523,10.508,30.759c0.311,0.893,0.84,1.967,1.604,2.42
				c6.444,3.805,12.965,7.492,20.083,11.568c5.318-23.241-4.711-41.396-16.421-59.306c6.573,4.154,12.668,8.514,18.388,13.329
				c7.854,6.625,11.361,15.36,10.042,25.544C177.338,191.472,175.371,197.179,174.193,203.002z M144.651,128.064
				c3.299,1.307,6.897,2.148,9.835,4.025c15.593,9.938,31.834,18.013,49.911,22.749c16.252,4.271,32.454,4.658,48.836,2.925
				c6.846-0.724,13.562-2.639,21.3-4.218c-3.728,9.084-10.896,13.341-17.806,16.008c-9.446,3.662-19.915,6.884-29.84,6.574
				c-16.834-0.518-32.882-4.943-46.029-17.405C169.535,147.979,156.801,138.715,144.651,128.064z"/>
			<path d="M222.601,242.97c0.104-0.08,0.206-0.162,0.307-0.246c2.255-1.877,3.894-4.785,5.753-7.033
				c7.047-8.527,15.005-16.941,24.071-23.343c7.991-5.641,17.991-8.831,26.8-13.296c18.946-9.604,37.36-21.809,49.07-39.974
				c8.409-13.043,12.789-28.277,15.706-43.52c1.509-7.891,2.633-16.197,0.146-23.836c-2.34-7.189-18.942-22.263-26.265-13.085
				c-4.701,5.892,3.206,17.764,3.686,24.113c0.946,12.546-2.112,25.328-7.735,36.516c-8.897,17.705-23.519,31.828-38.667,44.602
				c-11.403,9.616-23.297,18.688-34.088,29.008c-9.331,8.924-21.569,18.892-23.228,32.592
				C218.261,244.736,221.948,243.472,222.601,242.97z"/>
			<path d="M230.793,255.217c17.137,8.994,34.758,16.986,52.453,24.904c5.843,2.613,12.316,4.627,18.698,5.134
				c6.122,0.486,12.16-0.414,17.471-3.499c7.387-4.29,12.034-12.085,15.294-19.98c5.183-12.56,7.542-26.241,7.086-39.809
				c-0.326-9.694-1.455-30.835-9.881-37.507c-3.725-2.95-4.896-0.037-8.785,2.839c-14.524,10.745-31.711,17.004-47.983,24.511
				C268.343,214.948,215.465,247.216,230.793,255.217z"/>
			<path d="M90.001,213.244c13.05,2.949,25.988,6.616,38.346,11.789c6.224,2.606,12.292,5.595,18.092,9.045
				c5.68,3.38,9.897,7.799,14.839,12.132c0.932,0.816,2.836,1.66,1.393,2.702c-0.763,0.551-9.771-4.287-11.043-4.814
				c-3.865-1.601-7.761-3.126-11.684-4.575c-7.848-2.901-15.806-5.501-23.853-7.791c-15.507-4.416-31.152-7.204-47.041-9.617
				c-2.863-0.435-8.838-0.275-11.217-2.174c0.129,0.777,0.155,1.229,0.285,1.566c0.025,0.051,0.051,0.104,0.078,0.155
				c7.175,14.329,17.469,27.262,27.349,39.745c9.669,12.217,20.008,23.902,30.952,34.991c11.165,11.316,22.959,22.013,35.311,32.021
				c6.24,5.056,12.62,9.937,19.135,14.634c6.214,4.481,12.587,7.989,19.038,11.958c13.432,8.256,28.041,13.976,43.259,18.038
				c4.797,1.286,9.939,2.094,15.269,2.463c3.47,24.419,7.512,62.355,5.512,96.757l40.573,2.358
				c2.194-37.761-2.026-78.129-5.746-104.346c18.959-6.243,35.931-17.743,44.632-34.071c3.817-7.166,7.729-28.05-1.103-34.168
				c-1.063-0.738-2.312-1.26-3.769-1.519c-67.219-11.944-120.626-47.794-176.273-85.456c-6.664-3.882-13.471-7.511-20.458-10.812
				c-14.816-6.996-30.549-12.284-46.813-14.552c-15.448-2.153-31.208-2.22-46.129,2.946c-5.379,1.862-8.792,3.645-12.37,7.945
				c9.811,3.44,21.151,4.474,31.379,6.346C68.657,208.905,79.377,210.843,90.001,213.244z"/>
			<path d="M409.496,177.467c-5.872,3.659-9.477,9.962-12.842,16.006c-4.705,8.451-51.229,98.334-56.411,95.79
				c16.524,8.178,17.702,22.387,12.578,38.69c1.269-0.168,1.772-0.142,2.188-0.311c18.775-7.531,32.79-21.688,47.879-34.382
				c8.036-6.768,16.162-13.471,24.664-19.617c17.236-12.437,36.388-21.093,56.679-27.33c7.259-2.226,8.929-6.47,4.931-12.992
				c-3.105-5.087-6.872-9.771-10.275-14.687c-7.337-10.624-17.378-18.389-27.343-26.295
				C442.135,184.876,421.678,169.874,409.496,177.467z"/>
			<path d="M267.877,57.508c9.166,0.312,21.745-0.592,23.416-0.999c11.436-2.774,20.981-9.46,32.8-11.34
				c13.771-2.189,27.878-0.788,40.035,6.432c10.766,6.393,21.325,13.161,31.923,19.824c1.035,0.647,1.734,1.786,3.649,3.818
				c-4.853-0.88-8.359-1.062-11.543-2.188c-9.731-3.456-19.138-8.01-29.082-10.665c-6.127-1.631-12.726-0.381-18.96-0.278
				c0.625,3.167,2.503,4.397,4.733,6.708c2.589,2.682,4.896,5.635,6.885,8.787c3.978,6.304,6.684,13.42,7.802,20.794
				c1.19,7.847,0.579,15.946-1.672,23.552c-2.36,7.98-6.94,15.019-10.089,22.686c-2.407,5.861-4.874,11.71-6.751,17.741
				c-3.39,10.831,0.369,20.704,4.887,30.357c0.828,1.759,1.878,3.429,2.887,5.253c2.856-8.206,4.938-16.023,9.189-23.733
				c4.246-7.696,9.274-14.919,14.065-22.279c7.893-12.123,15.32-25.167,16.782-39.559c0.575-5.666,1.701-12.147,8.728-12.528
				c1.923,6.161,3.692,12.284,3.692,18.801c0.039,0.246,0.052,0.504,0.078,0.75c1.608,15.267-11.864,27.339-19.681,38.858
				c-8.779,12.94-16.291,26.804-21.626,41.525c-0.746,2.06-1.448,4.133-2.107,6.223c-2.729,8.671-4.672,17.568-6.211,26.522
				c-0.785,4.572-1.464,9.161-2.094,13.757c-0.527,3.853-2.369,9.7-1.547,13.415c1.258-0.247,2.241-2.722,2.759-3.896
				c3.365-7.647,6.211-15.567,10.094-22.943c8.76-16.685,17.65-33.302,26.541-49.908c8.75-16.345,20.163-30.776,30.359-46.195
				c10.478-15.848,19.414-33.65,19.691-52.646c0.277-18.996-10.213-39.186-28.264-45.111c-24.724-8.115-51.922-13.819-77.872-15.634
				c-26.751-1.871-66.25-1.364-73.207,31.716C257.848,56.657,262.211,57.314,267.877,57.508z"/>
			<path d="M430.669,55.949c-0.05-0.154-0.109-0.3-0.16-0.453c-2.908-6.266-7.159-11.698-13.467-14.927
				c-2.342-1.2-4.795-2.074-7.309-2.986c-0.608-0.119-1.223-0.229-1.854-0.32c-0.207-0.026-0.414-0.064-0.621-0.091
				c3.377,0.906,6.677,2.057,9.782,3.649C423.461,44.108,427.757,49.543,430.669,55.949z"/>
		</g>
	</g>
</g>
<g>
</g>
<g>
</g>
<g>
</g>
<g>
</g>
<g>
</g>
<g>
</g>
<g>
</g>
<g>
</g>
<g>
</g>
<g>
</g>
<g>
</g>
<g>
</g>
<g>
</g>
<g>
</g>
<g>
</g>
</svg>
